<?xml version="1.0" encoding="UTF-8" standalone="no"?>
<!DOCTYPE svg PUBLIC "-//W3C//DTD SVG 1.1//EN"
 "http://www.w3.org/Graphics/SVG/1.1/DTD/svg11.dtd">
<!-- Generated by graphviz version 5.0.1 (20220820.1526)
 -->
<!-- Pages: 1 -->
<svg width="644pt" height="332pt"
 viewBox="0.00 0.00 644.25 332.00" xmlns="http://www.w3.org/2000/svg" xmlns:xlink="http://www.w3.org/1999/xlink">
<g id="graph0" class="graph" transform="scale(1 1) rotate(0) translate(4 328)">
<polygon fill="white" stroke="none" points="-4,4 -4,-328 640.25,-328 640.25,4 -4,4"/>
<!-- [root] aws_security_group.dynamic_sg (expand) -->
<g id="node1" class="node">
<title>[root] aws_security_group.dynamic_sg (expand)</title>
<polygon fill="none" stroke="black" points="506.27,-180 311.27,-180 311.27,-144 506.27,-144 506.27,-180"/>
<text text-anchor="middle" x="408.77" y="-158.3" font-family="Times,serif" font-size="14.00">aws_security_group.dynamic_sg</text>
</g>
<!-- [root] provider[&quot;registry.terraform.io/hashicorp/aws&quot;] -->
<g id="node2" class="node">
<title>[root] provider[&quot;registry.terraform.io/hashicorp/aws&quot;]</title>
<polygon fill="none" stroke="black" points="252.77,-108 0.23,-90 252.77,-72 505.3,-90 252.77,-108"/>
<text text-anchor="middle" x="252.77" y="-86.3" font-family="Times,serif" font-size="14.00">provider[&quot;registry.terraform.io/hashicorp/aws&quot;]</text>
</g>
<!-- [root] aws_security_group.dynamic_sg (expand)&#45;&gt;[root] provider[&quot;registry.terraform.io/hashicorp/aws&quot;] -->
<g id="edge1" class="edge">
<title>[root] aws_security_group.dynamic_sg (expand)&#45;&gt;[root] provider[&quot;registry.terraform.io/hashicorp/aws&quot;]</title>
<path fill="none" stroke="black" d="M370.61,-143.88C347.69,-133.6 318.51,-120.5 294.92,-109.92"/>
<polygon fill="black" stroke="black" points="296.08,-106.6 285.52,-105.7 293.21,-112.98 296.08,-106.6"/>
</g>
<!-- [root] var.sg_ports -->
<g id="node5" class="node">
<title>[root] var.sg_ports</title>
<polygon fill="none" stroke="black" points="600.27,-108 523.27,-108 523.27,-72 606.27,-72 606.27,-102 600.27,-108"/>
<polyline fill="none" stroke="black" points="600.27,-108 600.27,-102"/>
<polyline fill="none" stroke="black" points="606.27,-102 600.27,-102"/>
<text text-anchor="middle" x="564.77" y="-86.3" font-family="Times,serif" font-size="14.00">var.sg_ports</text>
</g>
<!-- [root] aws_security_group.dynamic_sg (expand)&#45;&gt;[root] var.sg_ports -->
<g id="edge2" class="edge">
<title>[root] aws_security_group.dynamic_sg (expand)&#45;&gt;[root] var.sg_ports</title>
<path fill="none" stroke="black" d="M446.93,-143.88C468.16,-134.35 494.78,-122.41 517.34,-112.28"/>
<polygon fill="black" stroke="black" points="519.04,-115.36 526.73,-108.07 516.17,-108.97 519.04,-115.36"/>
</g>
<!-- [root] var.my_access_key -->
<g id="node3" class="node">
<title>[root] var.my_access_key</title>
<polygon fill="none" stroke="black" points="238.77,-36 122.77,-36 122.77,0 244.77,0 244.77,-30 238.77,-36"/>
<polyline fill="none" stroke="black" points="238.77,-36 238.77,-30"/>
<polyline fill="none" stroke="black" points="244.77,-30 238.77,-30"/>
<text text-anchor="middle" x="183.77" y="-14.3" font-family="Times,serif" font-size="14.00">var.my_access_key</text>
</g>
<!-- [root] provider[&quot;registry.terraform.io/hashicorp/aws&quot;]&#45;&gt;[root] var.my_access_key -->
<g id="edge4" class="edge">
<title>[root] provider[&quot;registry.terraform.io/hashicorp/aws&quot;]&#45;&gt;[root] var.my_access_key</title>
<path fill="none" stroke="black" d="M237.11,-73.12C228.49,-64.37 217.61,-53.33 207.93,-43.51"/>
<polygon fill="black" stroke="black" points="210.33,-40.96 200.81,-36.29 205.34,-45.87 210.33,-40.96"/>
</g>
<!-- [root] var.my_secret_key -->
<g id="node4" class="node">
<title>[root] var.my_secret_key</title>
<polygon fill="none" stroke="black" points="376.27,-36 263.27,-36 263.27,0 382.27,0 382.27,-30 376.27,-36"/>
<polyline fill="none" stroke="black" points="376.27,-36 376.27,-30"/>
<polyline fill="none" stroke="black" points="382.27,-30 376.27,-30"/>
<text text-anchor="middle" x="322.77" y="-14.3" font-family="Times,serif" font-size="14.00">var.my_secret_key</text>
</g>
<!-- [root] provider[&quot;registry.terraform.io/hashicorp/aws&quot;]&#45;&gt;[root] var.my_secret_key -->
<g id="edge5" class="edge">
<title>[root] provider[&quot;registry.terraform.io/hashicorp/aws&quot;]&#45;&gt;[root] var.my_secret_key</title>
<path fill="none" stroke="black" d="M268.65,-73.12C277.4,-64.37 288.43,-53.33 298.26,-43.51"/>
<polygon fill="black" stroke="black" points="300.88,-45.84 305.48,-36.29 295.93,-40.89 300.88,-45.84"/>
</g>
<!-- [root] provider[&quot;registry.terraform.io/hashicorp/aws&quot;] (close) -->
<g id="node6" class="node">
<title>[root] provider[&quot;registry.terraform.io/hashicorp/aws&quot;] (close)</title>
<ellipse fill="none" stroke="black" cx="408.77" cy="-234" rx="227.46" ry="18"/>
<text text-anchor="middle" x="408.77" y="-230.3" font-family="Times,serif" font-size="14.00">[root] provider[&quot;registry.terraform.io/hashicorp/aws&quot;] (close)</text>
</g>
<!-- [root] provider[&quot;registry.terraform.io/hashicorp/aws&quot;] (close)&#45;&gt;[root] aws_security_group.dynamic_sg (expand) -->
<g id="edge3" class="edge">
<title>[root] provider[&quot;registry.terraform.io/hashicorp/aws&quot;] (close)&#45;&gt;[root] aws_security_group.dynamic_sg (expand)</title>
<path fill="none" stroke="black" d="M408.77,-215.7C408.77,-207.98 408.77,-198.71 408.77,-190.11"/>
<polygon fill="black" stroke="black" points="412.27,-190.1 408.77,-180.1 405.27,-190.1 412.27,-190.1"/>
</g>
<!-- [root] root -->
<g id="node7" class="node">
<title>[root] root</title>
<ellipse fill="none" stroke="black" cx="408.77" cy="-306" rx="47.39" ry="18"/>
<text text-anchor="middle" x="408.77" y="-302.3" font-family="Times,serif" font-size="14.00">[root] root</text>
</g>
<!-- [root] root&#45;&gt;[root] provider[&quot;registry.terraform.io/hashicorp/aws&quot;] (close) -->
<g id="edge6" class="edge">
<title>[root] root&#45;&gt;[root] provider[&quot;registry.terraform.io/hashicorp/aws&quot;] (close)</title>
<path fill="none" stroke="black" d="M408.77,-287.7C408.77,-279.98 408.77,-270.71 408.77,-262.11"/>
<polygon fill="black" stroke="black" points="412.27,-262.1 408.77,-252.1 405.27,-262.1 412.27,-262.1"/>
</g>
</g>
</svg>
